<?xml version="1.0" encoding="UTF-8" standalone="no"?>
<!-- Created with Inkscape (http://www.inkscape.org/) -->

<svg
   xmlns:dc="http://purl.org/dc/elements/1.1/"
   xmlns:cc="http://creativecommons.org/ns#"
   xmlns:rdf="http://www.w3.org/1999/02/22-rdf-syntax-ns#"
   xmlns:svg="http://www.w3.org/2000/svg"
   xmlns="http://www.w3.org/2000/svg"
   xmlns:sodipodi="http://sodipodi.sourceforge.net/DTD/sodipodi-0.dtd"
   xmlns:inkscape="http://www.inkscape.org/namespaces/inkscape"
   width="128"
   height="128"
   viewBox="0 0 33.866666 33.866668"
   version="1.1"
   id="svg8"
   inkscape:export-filename="E:\Git-Workspace\_UE\Soviet-Cargo\GRAFIKEN\Slime1.png"
   inkscape:export-xdpi="96.000008"
   inkscape:export-ydpi="96.000008"
   inkscape:version="0.92.5 (2060ec1f9f, 2020-04-08)"
   sodipodi:docname="Slime1.svg">
  <defs
     id="defs2" />
  <sodipodi:namedview
     id="base"
     pagecolor="#ffffff"
     bordercolor="#666666"
     borderopacity="1.0"
     inkscape:pageopacity="0.0"
     inkscape:pageshadow="2"
     inkscape:zoom="5.6"
     inkscape:cx="58.985183"
     inkscape:cy="64.731009"
     inkscape:document-units="mm"
     inkscape:current-layer="layer1"
     showgrid="false"
     units="px"
     borderlayer="true"
     inkscape:showpageshadow="false"
     inkscape:pagecheckerboard="true"
     inkscape:window-width="1858"
     inkscape:window-height="1057"
     inkscape:window-x="1912"
     inkscape:window-y="-8"
     inkscape:window-maximized="1" />
  <metadata
     id="metadata5">
    <rdf:RDF>
      <cc:Work
         rdf:about="">
        <dc:format>image/svg+xml</dc:format>
        <dc:type
           rdf:resource="http://purl.org/dc/dcmitype/StillImage" />
        <dc:title></dc:title>
      </cc:Work>
    </rdf:RDF>
  </metadata>
  <g
     inkscape:label="Ebene 1"
     inkscape:groupmode="layer"
     id="layer1"
     transform="translate(0,-263.13332)">
    <path
       inkscape:connector-curvature="0"
       id="path823"
       d="m 1.937128,279.23511 c 0,0 -2.88206847,-6.00038 0.094494,-6.47285 2.9765623,-0.47247 -0.5717582,-6.48395 5.6223957,-7.98474 6.1941543,-1.50079 1.3229166,2.92931 8.1264883,3.40178 6.803572,0.47247 8.315477,-4.58296 11.906251,-1.27567 2.957216,2.72375 -0.141743,8.22098 3.401783,9.40216 3.543528,1.18118 1.511905,10.48884 -1.370161,11.90625 -2.882069,1.41741 -0.755953,4.58296 -5.197173,5.76414 -4.441221,1.18117 -7.370537,0.18899 -11.859004,-0.51972 -4.488467,-0.7087 -12.89843712,-7.60677 -11.0085562,-10.01637 1.8898809,-2.40959 1.9371281,-0.42522 0.2834822,-4.20498 z"
       style="opacity:0.644;fill:#1c7a1d;fill-opacity:1;stroke:none;stroke-width:0.26458332px;stroke-linecap:butt;stroke-linejoin:miter;stroke-opacity:1"
       sodipodi:nodetypes="cszsssscccc" />
    <path
       style="fill:#1c7a1d;stroke:none;stroke-width:0.26458332px;stroke-linecap:butt;stroke-linejoin:miter;stroke-opacity:1;fill-opacity:1;opacity:0.828"
       d="m 1.937128,279.23511 c 0,0 -2.88206847,-6.00038 0.094494,-6.47285 2.9765623,-0.47247 4.5829612,-2.17336 4.3939731,-3.87425 -0.1889879,-1.7009 1.5591517,-3.87426 8.3627229,-3.40179 6.803572,0.47247 13.890626,6.56734 12.520463,10.3471 -1.370165,3.77976 -1.93713,7.22879 1.606396,8.40997 3.543528,1.18118 5.905878,8.97694 3.023812,10.39435 -2.882069,1.41741 -10.063617,-2.64584 -14.504837,-1.46466 -4.441221,1.18117 -4.677456,3.82701 -9.1659229,3.1183 -4.4884673,-0.7087 -8.17373505,-4.77195 -6.2838541,-7.18155 1.8898809,-2.40959 1.6063989,-6.09486 -0.047247,-9.87462 z"
       id="path815"
       inkscape:connector-curvature="0" />
    <path
       style="fill:#229523;stroke:none;stroke-width:0.26458332px;stroke-linecap:butt;stroke-linejoin:miter;stroke-opacity:1;fill-opacity:1;opacity:0.59"
       d="m 10.441592,268.32104 c 0,0 4.724703,-1.55915 5.858631,-0.47247 1.133929,1.08668 2.031622,3.40179 1.27567,4.58296 -0.755953,1.18118 -2.740328,2.5041 -0.377977,3.68527 2.362352,1.18118 4.913691,2.12612 5.102679,4.15774 0.188988,2.03162 -6.236607,2.55134 -7.748512,0.56696 -1.511905,-1.98437 -2.834821,-5.05543 -1.653646,-7.65401 1.181176,-2.59859 -6.2366068,-4.016 -2.456845,-4.86645 z"
       id="path817"
       inkscape:connector-curvature="0" />
    <path
       style="opacity:0.53200001;fill:#249d25;fill-opacity:1;stroke:none;stroke-width:0.26458332px;stroke-linecap:butt;stroke-linejoin:miter;stroke-opacity:1"
       d="m 11.386533,293.64545 c 0,0 1.275669,-3.07105 8.268229,-2.55134 6.992559,0.51972 5.905878,1.65365 9.260416,2.55134 3.354538,0.8977 4.252232,-1.88988 1.41741,-4.15774 -2.83482,-2.26785 -8.409969,-4.01599 -9.780133,-2.36235 -1.370163,1.65365 -2.882068,2.26786 -6.803571,2.69308 -3.9215032,0.42523 -4.6774556,6.75633 -2.362351,3.82701 z"
       id="path819"
       inkscape:connector-curvature="0" />
    <path
       style="fill:#218e22;stroke:none;stroke-width:0.26458332px;stroke-linecap:butt;stroke-linejoin:miter;stroke-opacity:1;fill-opacity:1;opacity:0.664"
       d="m 4.9609374,290.95237 c 0,0 1.7008928,-1.79539 4.1577382,-2.45685 2.4568454,-0.66146 2.7875744,-3.02381 1.5119044,-4.7247 -1.2756694,-1.70089 -3.7325145,-3.73252 -3.0238093,-6.47284 0.7087053,-2.74033 1.6536459,-5.05543 0.6614584,-5.6224 -0.9921875,-0.56696 -4.8191965,2.59859 -5.5751489,3.63802 -0.7559522,1.03944 0.6614583,2.31511 2.2678572,4.8192 1.6063989,2.50409 2.0788691,6.04762 0.9449406,7.32329 -1.1339287,1.27567 -3.0238096,5.19717 -0.9449406,3.49628 z"
       id="path821"
       inkscape:connector-curvature="0" />
  </g>
</svg>
